<svg viewBox="0 0 36 36" fill="none" xmlns="http://www.w3.org/2000/svg">
  <!-- Repository folder base -->
  <path
    d="M6 8C6 6.89543 6.89543 6 8 6H16L18 8H28C29.1046 8 30 8.89543 30 10V28C30 29.1046 29.1046 30 28 30H8C6.89543 30 6 29.1046 6 28V8Z"
    fill="url(#folderGradient)"
    stroke="url(#folderStroke)"
    stroke-width="1"
  />
  
  <!-- Insight spark - gradient from blue to green -->
  <path
    d="M20 12C20 10.8954 20.8954 10 22 10H24C25.1046 10 26 10.8954 26 12V14C26 15.1046 25.1046 16 24 16H22C20.8954 16 20 15.1046 20 14V12Z"
    fill="url(#sparkGradient)"
  />
  
  <!-- Additional spark elements -->
  <circle cx="14" cy="18" r="2" fill="url(#sparkGradient)" opacity="0.7" />
  <circle cx="26" cy="20" r="1.5" fill="url(#sparkGradient)" opacity="0.5" />
  
  <!-- Gradients -->
  <defs>
    <linearGradient id="folderGradient" x1="0%" y1="0%" x2="100%" y2="100%">
      <stop offset="0%" stop-color="#1e40af" />
      <stop offset="100%" stop-color="#3b82f6" />
    </linearGradient>
    
    <linearGradient id="folderStroke" x1="0%" y1="0%" x2="100%" y2="100%">
      <stop offset="0%" stop-color="#3b82f6" />
      <stop offset="100%" stop-color="#10b981" />
    </linearGradient>
    
    <linearGradient id="sparkGradient" x1="0%" y1="0%" x2="100%" y2="100%">
      <stop offset="0%" stop-color="#3b82f6" />
      <stop offset="100%" stop-color="#10b981" />
    </linearGradient>
  </defs>
</svg>
